<?xml version="1.0" encoding="utf-8"?>
<!DOCTYPE svg PUBLIC "-//W3C//DTD SVG 1.0//EN" "http://www.w3.org/TR/2001/REC-SVG-20010904/DTD/svg10.dtd">
<svg version="1.0" xmlns="http://www.w3.org/2000/svg" width="200px" height="200px" viewBox="0 0 200 200" preserveAspectRatio="xMidYMid meet">
 <g fill="#ffffff">
  <path d="M0 100 l0 -100 100 0 100 0 0 100 0 100 -100 0 -100 0 0 -100z m147.55 58.70 c4.10 -2.05 7.40 -6.90 7.45 -11 0 -3.95 -4.80 -10.65 -8.35 -11.50 l-1.15 -0.30 0 -35.70 0 -35.70 1.90 -1 c3.65 -1.95 6.25 -5 7.35 -8.65 0.70 -2.30 0.70 -2.85 -0.05 -5.25 -1.60 -5.60 -8.70 -10.70 -13.35 -9.65 -5.50 1.25 -10.10 5.85 -11.10 11.10 -0.75 3.95 2.85 9.95 7.30 12.20 l2.45 1.25 0 35.50 0 35.50 -2.10 1 c-1.15 0.55 -2.70 1 -3.45 1 -1.05 0 -6.55 -4.05 -22.55 -16.55 -11.60 -9.10 -21.65 -16.90 -22.25 -17.30 -1.05 -0.70 -1.30 -0.70 -2.40 0.05 -0.70 0.45 -1.25 1.25 -1.25 1.75 0 1.25 0.20 1.40 24.25 20.05 l20.30 15.75 -0.30 3.80 c-0.20 2.70 -0.05 4.40 0.50 6.05 1.85 5.40 8.20 9.80 13 9 0.85 -0.15 2.55 -0.75 3.80 -1.40z m-84.80 -0.90 c3 -1.80 5.60 -5 6.60 -8.15 0.80 -2.50 0.80 -2.80 0 -5.35 -1 -3.15 -4.10 -6.90 -6.90 -8.35 l-1.95 -0.95 0 -35.40 0 -35.40 1.75 -0.85 c3.50 -1.65 3.75 -1.55 16.55 8.50 24.95 19.50 32.40 25.25 32.95 25.45 0.30 0.15 1.10 -0.35 1.75 -1.05 1.05 -1.10 1.10 -1.40 0.55 -2.35 -0.35 -0.65 -6.05 -5.30 -12.60 -10.40 -6.60 -5.10 -16.40 -12.75 -21.85 -17 l-9.85 -7.75 0 -4.50 c-0.05 -4.05 -0.20 -4.80 -1.50 -7.20 -1.80 -3.25 -5 -5.80 -8.55 -6.85 -2.45 -0.70 -2.80 -0.70 -5.55 0.25 -3.95 1.40 -7.75 5.25 -8.85 9.05 -0.70 2.45 -0.75 3 -0.05 5.25 1 3.50 3.80 7 6.80 8.35 l2.40 1.15 0.05 35.35 0 35.40 -1.85 0.75 c-4.05 1.70 -7.70 6.95 -7.75 11.05 -0.05 2.55 1.90 6.85 4.05 8.90 0.80 0.75 2.55 1.95 3.90 2.60 3.05 1.55 6.65 1.35 9.90 -0.50z"/>
 </g>
 <g fill="#e52327">
  <path d="M51.35 159.80 c-3.30 -1.65 -5.10 -3.50 -6.75 -6.80 -2.65 -5.40 -1.45 -12.15 3 -16.35 0.90 -0.90 2.50 -1.95 3.55 -2.40 l1.85 -0.75 0 -34 c0 -29.90 -0.10 -34 -0.75 -34 -0.40 0 -0.75 -0.20 -0.75 -0.45 0 -0.25 2.75 -0.45 6.15 -0.45 5.15 -0.05 5.95 0.05 5.25 0.60 -0.85 0.60 -0.90 2.85 -0.90 34.45 l0 33.85 1.95 0.95 c1.05 0.55 2.85 2.05 3.95 3.30 6 6.85 4.25 16.90 -3.75 21.60 -1.90 1.10 -3.05 1.35 -6.35 1.50 -3.50 0.15 -4.40 0 -6.45 -1.05z"/>
 </g>
 <g fill="#fab21f">
  <path d="M137 135 c0 -0.20 0.35 -0.50 0.75 -0.70 0.65 -0.25 0.75 -4.50 0.75 -34.30 l0 -34 -2.45 -1.25 c-5.70 -2.85 -8.80 -10.05 -7.05 -16.35 1.40 -5.05 6.80 -9.50 12.35 -10.20 6.25 -0.75 13.15 3.90 14.95 10.05 1.90 6.60 -1.20 13.60 -7.40 16.80 l-1.90 0.95 0 34.25 c0 30.10 0.10 34.25 0.75 34.25 0.40 0 0.75 0.20 0.75 0.45 0 0.25 -2.60 0.45 -5.75 0.45 -3.15 0 -5.75 -0.20 -5.75 -0.40z"/>
 </g>
 <g fill="#089b47">
  <path d="M98.45 89.85 c-6.45 -5 -16.50 -12.90 -22.35 -17.50 l-10.70 -8.35 -1.95 1 c-1.05 0.55 -3.50 1.15 -5.35 1.30 -3.15 0.30 -3.75 0.20 -6.70 -1.25 -9.05 -4.30 -11.10 -15.30 -4.25 -22.40 2.75 -2.85 6.65 -4.65 10 -4.65 4.90 0 10.15 3.15 12.60 7.55 1.35 2.45 1.50 3.15 1.50 7.20 l0.05 4.50 9.85 7.75 c5.40 4.25 15.20 11.90 21.80 17 12.25 9.45 14 11.25 13.25 13.65 -0.60 2.05 -2.25 3.35 -4.20 3.35 -1.60 0 -3.25 -1.10 -13.55 -9.15z"/>
 </g>
 <g fill="#216dae">
  <path d="M139.25 161.55 c-7.05 -1.85 -11.15 -7.80 -10.65 -15.25 l0.30 -3.55 -21.50 -16.75 c-11.85 -9.20 -21.95 -17.30 -22.45 -17.95 -1.30 -1.65 -1.20 -3.85 0.25 -5.30 1.65 -1.65 3.40 -2 5.10 -1.05 0.80 0.40 11.05 8.30 22.80 17.50 l21.40 16.70 2.05 -1 c6.80 -3.25 15.20 -0.25 18.65 6.70 1.05 2.05 1.30 3.30 1.30 6.10 -0.05 5.65 -2.70 10.10 -7.60 12.60 -2.60 1.30 -7.15 1.90 -9.65 1.25z"/>
 </g>
</svg>